<?xml version="1.0" encoding="utf-8"?>
<!-- Generator: Adobe Illustrator 17.0.0, SVG Export Plug-In . SVG Version: 6.00 Build 0)  -->
<!DOCTYPE svg PUBLIC "-//W3C//DTD SVG 1.1//EN" "http://www.w3.org/Graphics/SVG/1.1/DTD/svg11.dtd">
<svg version="1.1" id="Layer_1" xmlns="http://www.w3.org/2000/svg" xmlns:xlink="http://www.w3.org/1999/xlink" x="0px" y="0px"
	 width="100px" height="100px" viewBox="0 0 100 100" enable-background="new 0 0 100 100" xml:space="preserve">
<g>
	<g>
		<path d="M83.092,46.885l-5.013,6.823h11.379v8.353c-2.733,2.04-6.547,3.379-10.743,3.379c-9.09,0-15.13-6.758-15.13-15.94v-0.128
			c0-8.544,6.23-15.749,14.431-15.749c5.657,0,9.026,1.849,12.459,4.782l4.959-5.93c-4.577-3.89-9.345-6.058-17.1-6.058
			c-7.491,0-13.77,3.303-17.856,8.395l-3.492-8.232H47.78l-19.303,45.5V36.139h13.807l3.921-9.232H1.977v9.232h16.518v36.28h20.016
			l2.631-6.474l5.095-12.577h-0.013l6.028-14.759l3.301,8.082c-0.108,0.923-0.169,1.859-0.169,2.809v0.128
			c0,13.007,9.154,22.954,23.075,22.954c7.882,0,14.175-3.188,18.562-6.95V46.885H83.092z"/>
	</g>
</g>
</svg>
