<?xml version="1.0" encoding="utf-8"?>
<!-- Generator: Adobe Illustrator 17.0.0, SVG Export Plug-In . SVG Version: 6.00 Build 0)  -->
<!DOCTYPE svg PUBLIC "-//W3C//DTD SVG 1.1//EN" "http://www.w3.org/Graphics/SVG/1.1/DTD/svg11.dtd">
<svg version="1.1" id="Layer_1" xmlns="http://www.w3.org/2000/svg" xmlns:xlink="http://www.w3.org/1999/xlink" x="0px" y="0px"
	 width="100px" height="100px" viewBox="0 0 100 100" enable-background="new 0 0 100 100" xml:space="preserve">
<g>
	<g>
		<path d="M84.731,46.797l-5.183,7.054h11.764v8.636c-2.826,2.109-6.769,3.493-11.107,3.493c-9.398,0-15.642-6.987-15.642-16.48
			v-0.132c0-8.834,6.441-16.283,14.919-16.283c5.849,0,9.332,1.912,12.881,4.944l5.127-6.131c-4.732-4.021-9.661-6.263-17.679-6.263
			c-7.744,0-14.236,3.415-18.461,8.679l-3.61-8.51h-9.517L28.265,72.847V35.686H42.54l4.053-9.545H0.867v9.545h17.077v37.509h20.694
			l2.72-6.693l5.268-13.003h-0.013l6.233-15.259l3.413,8.356c-0.111,0.954-0.175,1.922-0.175,2.904v0.132
			c0,13.448,9.464,23.732,23.857,23.732c8.149,0,14.656-3.296,19.191-7.185V46.797H84.731z"/>
	</g>
</g>
</svg>
