
<svg fill="#fff" version="1.1" id="Layer_1" xmlns="http://www.w3.org/2000/svg" xmlns:xlink="http://www.w3.org/1999/xlink" x="0px" y="0px"
	 viewBox="-75 47.3 95 46" style="enable-background:new -75 47.3 95 46;" xml:space="preserve">
<g>
	<g>
		<path d="M6.1,67.6l-5,6.8h11.4v8.4c-2.7,2-6.5,3.4-10.7,3.4c-9.1,0-15.1-6.8-15.1-15.9v-0.1c0-8.5,6.2-15.7,14.4-15.7
			c5.7,0,9,1.8,12.5,4.8l5-5.9c-4.6-3.9-9.3-6.1-17.1-6.1c-7.5,0-13.8,3.3-17.9,8.4l-3.5-8.2h-9.2l-19.3,45.5V56.9h13.8l3.9-9.2H-75
			v9.2h16.5v36.3h20l2.6-6.5l5.1-12.6h0l6-14.8l3.3,8.1c-0.1,0.9-0.2,1.9-0.2,2.8v0.1c0,13,9.2,23,23.1,23c7.9,0,14.2-3.2,18.6-6.9
			V67.6H6.1z"/>
	</g>
</g>
</svg>
