<?xml version="1.0" encoding="utf-8"?>
<!-- Generator: Adobe Illustrator 19.0.0, SVG Export Plug-In . SVG Version: 6.00 Build 0)  -->
<svg version="1.1" id="Layer_1" xmlns="http://www.w3.org/2000/svg" xmlns:xlink="http://www.w3.org/1999/xlink" x="0px" y="0px"
	 viewBox="0 0 47.8 47.8" style="enable-background:new 0 0 47.8 47.8;" xml:space="preserve">
<style type="text/css">
	.st0{fill:url(#XMLID_18_);}
</style>
<linearGradient id="XMLID_18_" gradientUnits="userSpaceOnUse" x1="3.9756" y1="37.3122" x2="43.6519" y2="10.6209">
	<stop  offset="0" style="stop-color:#84C77D"/>
	<stop  offset="1" style="stop-color:#42B7CF"/>
</linearGradient>
<path id="XMLID_1_" class="st0" d="M23.9,0C10.7,0,0,10.7,0,23.9s10.7,23.9,23.9,23.9c13.2,0,23.9-10.7,23.9-23.9S37.1,0,23.9,0z
	 M34,33.3c-5.4,0-8.9-3.8-8.9-8.8v0c0-0.4,0-0.7,0.1-1.1l-1.3-3.1l-2.3,5.7h0l-2,4.8l0,0l-1,2.5h-3.9h-0.1h-3.8v-14H4.5v-3.6h17.1
	L20,19.3h-5.3v13.9l7.5-17.5h3.6l1.4,3.2c1.6-2,4-3.2,6.9-3.2c3,0,4.8,0.8,6.6,2.3l-1.9,2.3c-1.3-1.1-2.6-1.8-4.8-1.8
	c-3.2,0-5.6,2.8-5.6,6.1v0c0,3.5,2.3,6.1,5.9,6.1c1.6,0,3.1-0.5,4.2-1.3V26h-4.4l1.9-2.6h5.4v7.2C39.5,32.1,37.1,33.3,34,33.3z"/>
</svg>
